<svg width="268" height="97" viewBox="0 0 268 97" fill="none" xmlns="http://www.w3.org/2000/svg">
<path d="M69 94.9587V38.3128H88.5417V46.4795H88.7708C88.9063 46.1878 89.1458 45.8232 89.4792 45.3753C89.8125 44.9326 90.526 44.1618 91.625 43.0628C92.7344 41.9535 93.9167 40.9587 95.1667 40.0837C96.4167 39.1982 98.0313 38.4066 100.021 37.7087C102.005 37.016 104.031 36.667 106.104 36.667C108.24 36.667 110.339 36.9587 112.396 37.542C114.448 38.1253 115.958 38.7191 116.917 39.3128L118.458 40.1878L110.292 56.7503C107.859 54.6982 104.479 53.667 100.146 53.667C97.7813 53.667 95.7552 54.1826 94.0625 55.2087C92.3646 56.2399 91.1719 57.4899 90.4792 58.9587C89.7813 60.4326 89.2813 61.6878 88.9792 62.7295C88.6875 63.7607 88.5417 64.5628 88.5417 65.1462V94.9587H69Z" fill="#0D0D0D"/>
<path d="M173.661 45.3958C178.963 51.2031 181.62 58.3021 181.62 66.6875C181.62 75.0781 178.963 82.1667 173.661 87.9583C168.37 93.7396 161.64 96.625 153.474 96.625C145.958 96.625 139.771 93.9375 134.911 88.5625H134.703V94.9583H115.37V0H134.911V43.7292C139.771 39.0208 145.958 36.6667 153.474 36.6667C161.64 36.6667 168.37 39.5781 173.661 45.3958ZM157.224 76.25C159.651 73.7812 160.87 70.5938 160.87 66.6875C160.87 62.7865 159.599 59.5833 157.057 57.0833C154.515 54.5833 151.37 53.3333 147.62 53.3333C143.937 53.3333 140.828 54.5833 138.286 57.0833C135.745 59.5833 134.474 62.7865 134.474 66.6875C134.474 70.5208 135.703 73.6875 138.161 76.1875C140.63 78.6875 143.786 79.9375 147.62 79.9375C151.588 79.9375 154.792 78.7083 157.224 76.25Z" fill="#0D0D0D"/>
<path d="M184.039 7.75C186.315 5.45833 189.039 4.3125 192.206 4.3125C195.373 4.3125 198.091 5.45833 200.373 7.75C202.664 10.0313 203.81 12.75 203.81 15.9167C203.81 19.0729 202.664 21.7917 200.373 24.0833C198.091 26.3646 195.373 27.5 192.206 27.5C189.039 27.5 186.315 26.3646 184.039 24.0833C181.758 21.7917 180.623 19.0729 180.623 15.9167C180.623 12.75 181.758 10.0313 184.039 7.75ZM182.164 39.3125V95.9583H201.706V39.3125H182.164Z" fill="#0D0D0D"/>
<path d="M210.207 38.3128V17.2295H229.748V38.3128H241.686V53.2295H229.748V71.2087C229.748 76.4482 231.217 79.0628 234.165 79.0628C234.899 79.0628 235.67 78.917 236.478 78.6253C237.295 78.3232 237.925 78.0212 238.373 77.7295L239.019 77.292L243.894 93.0837C239.686 95.443 234.899 96.6253 229.54 96.6253C225.858 96.6253 222.691 95.9795 220.04 94.6878C217.384 93.3962 215.379 91.667 214.019 89.5003C212.655 87.3232 211.675 85.0368 211.082 82.6462C210.498 80.2607 210.207 77.7035 210.207 74.9795V53.2295H202.04V38.3128H210.207Z" fill="#0D0D0D"/>
<path d="M254.475 71.333C258.017 71.333 261.017 72.5726 263.475 75.0413C265.944 77.4997 267.184 80.4945 267.184 84.0205C267.184 87.4788 265.944 90.4476 263.475 92.9163C261.017 95.3851 258.017 96.6247 254.475 96.6247C251.017 96.6247 248.048 95.3851 245.58 92.9163C243.121 90.4476 241.892 87.4788 241.892 84.0205C241.892 80.4945 243.121 77.4997 245.58 75.0413C248.048 72.5726 251.017 71.333 254.475 71.333Z" fill="#0D0D0D"/>
<ellipse cx="33.95" cy="66.98" rx="33.95" ry="29.98" fill="#0D0D0D"/>
<mask id="mask0_349_1368" style="mask-type:alpha" maskUnits="userSpaceOnUse" x="0" y="37" width="86" height="60">
<path d="M67.9 66.98C67.9 83.5375 52.7001 96.96 33.95 96.96C15.1999 96.96 0 83.5375 0 66.98C0 50.4225 15.1999 37 33.95 37C52.7001 37 67.9 50.4225 67.9 66.98Z" fill="#0D0D0D"/>
<path d="M86 66.5C86 73.4036 70.7777 79 52 79C33.2223 79 18 73.4036 18 66.5C18 59.5964 33.2223 54 52 54C70.7777 54 86 59.5964 86 66.5Z" fill="#0D0D0D"/>
</mask>
<g mask="url(#mask0_349_1368)">
<mask id="mask1_349_1368" style="mask-type:luminance" maskUnits="userSpaceOnUse" x="-11" y="19" width="93" height="93">
<path d="M-10.7 19.8997H81.3V111.9H-10.7V19.8997Z" fill="white"/>
</mask>
<g mask="url(#mask1_349_1368)">
<path d="M81.3516 65.6686H67.7799C44.5493 60.7206 39.3876 55.6147 34.3576 32.7027V19.8616H32.6389V32.8381C27.6262 55.6316 22.4358 60.7319 -0.748941 65.6686H-10.6484V67.3612H-0.748941C22.4358 72.3036 27.6262 77.3983 32.6389 100.192V112.931H34.3576V100.327C39.3876 77.4152 44.5493 72.3092 67.7799 67.3612H81.3516V65.6686Z" fill="#8C1111"/>
</g>
</g>
</svg>
